<?xml version="1.0" standalone="no"?>
<!DOCTYPE svg PUBLIC "-//W3C//DTD SVG 20010904//EN"
 "http://www.w3.org/TR/2001/REC-SVG-20010904/DTD/svg10.dtd">
<svg version="1.0" xmlns="http://www.w3.org/2000/svg"
 width="163.000000pt" height="163.000000pt" viewBox="0 0 163.000000 163.000000"
 preserveAspectRatio="xMidYMid meet">
<metadata>
Created by potrace 1.14, written by Peter Selinger 2001-2017
</metadata>
<g transform="translate(0.000000,163.000000) scale(0.100000,-0.100000)"
fill="#000000" stroke="none">
<path d="M651 1558 c-41 -10 -101 -35 -134 -54 -60 -35 -156 -128 -157 -151 0
-7 -4 -13 -9 -13 -5 0 -12 -10 -16 -22 -4 -13 -8 -25 -9 -28 -24 -66 -42 -210
-25 -210 3 0 5 -10 4 -22 -1 -13 3 -37 10 -55 8 -17 11 -34 7 -37 -3 -3 1 -6
8 -6 7 0 11 -3 7 -6 -8 -8 37 -70 82 -113 20 -18 59 -44 86 -57 87 -41 214
-80 192 -58 -3 3 -2 16 3 29 8 20 -3 33 -86 113 -69 67 -92 96 -88 109 3 10 8
25 11 33 7 17 9 25 17 60 6 30 14 62 22 93 3 12 7 30 7 39 1 16 36 34 80 42 7
1 46 13 87 25 41 12 83 25 93 27 9 3 17 12 17 19 0 8 9 30 20 50 11 19 17 35
14 35 -3 0 4 12 15 26 11 15 18 30 15 35 -3 5 0 9 6 9 6 0 9 4 6 9 -3 5 1 14
9 21 8 7 12 17 8 22 -6 10 52 7 147 -7 l35 -6 -37 21 c-96 52 -304 66 -447 28z"/>
<path d="M974 1485 c-5 -5 -18 -30 -29 -55 -11 -25 -29 -63 -41 -85 -33 -61
-32 -62 99 -182 l46 -42 43 24 c24 13 68 37 98 54 59 32 66 48 49 116 -11 43
-21 107 -21 127 1 19 -6 21 -149 41 -59 9 -89 9 -95 2z"/>
<path d="M1265 1369 c4 -24 9 -53 11 -64 2 -11 6 -36 9 -56 l6 -35 -110 -60
c-61 -32 -111 -61 -111 -64 0 -8 293 -5 306 3 8 5 9 19 4 44 -5 20 -8 39 -8
42 0 3 -1 9 -2 14 -1 4 -3 10 -5 15 -15 55 -23 75 -48 124 -16 31 -36 63 -44
69 -13 11 -14 7 -8 -32z"/>
<path d="M800 1250 c-14 -5 -57 -18 -97 -30 -39 -12 -77 -28 -84 -36 -6 -8 -9
-14 -6 -14 4 0 0 -18 -8 -40 -8 -22 -12 -40 -10 -40 2 0 -2 -18 -10 -40 -8
-22 -12 -40 -10 -40 3 0 0 -11 -5 -24 -5 -14 -5 -26 0 -28 5 -2 44 -37 88 -80
l79 -76 44 13 c24 8 77 24 117 35 55 16 72 25 68 36 -3 8 -1 14 5 14 6 0 9 7
5 15 -3 8 -2 15 2 15 4 0 8 8 9 18 2 26 28 127 38 142 5 9 4 11 -3 6 -7 -4
-12 -3 -12 3 0 16 -154 161 -170 160 -8 0 -26 -4 -40 -9z"/>
<path d="M1004 883 c-9 -15 4 -32 84 -109 81 -78 93 -94 87 -114 -4 -12 -9
-30 -10 -39 -2 -9 -4 -17 -5 -18 -3 -3 -2 -2 -20 -78 -8 -33 -15 -64 -15 -70
-2 -28 -29 -43 -120 -69 -137 -39 -148 -44 -141 -61 3 -8 1 -17 -3 -19 -8 -5
-26 -83 -22 -98 0 -5 -4 -8 -10 -8 -5 0 -7 -4 -4 -10 3 -5 3 -16 -2 -22 -9
-14 -10 -20 -12 -47 -1 -13 -13 -23 -38 -31 -21 -6 -45 -14 -53 -17 -8 -3 -26
-8 -39 -10 -96 -16 -29 -37 119 -37 121 0 178 7 261 33 219 69 340 224 334
431 -4 172 -81 287 -238 359 -56 25 -75 33 -127 47 -8 2 -20 -4 -26 -13z"/>
<path d="M930 830 c-8 -4 -52 -18 -98 -30 -80 -22 -105 -39 -95 -67 3 -7 0
-13 -5 -13 -6 0 -9 -8 -7 -17 1 -10 -1 -22 -5 -28 -5 -5 -8 -13 -8 -18 -1 -4
-6 -31 -13 -61 l-12 -53 72 -68 c106 -101 90 -97 211 -63 115 33 118 35 125
66 3 12 7 32 10 45 3 12 8 33 10 47 3 14 10 44 17 67 11 40 11 44 -12 64 -14
12 -50 46 -80 76 -57 54 -84 67 -110 53z"/>
<path d="M239 503 c-1 -10 0 -22 1 -28 6 -31 11 -53 16 -80 7 -39 53 -142 69
-155 10 -8 15 -5 21 12 4 13 9 31 10 41 1 9 3 19 4 22 1 3 4 10 5 15 1 6 4 13
5 18 1 4 2 10 1 15 0 4 5 7 12 7 8 0 7 4 -3 10 -8 5 -10 10 -5 10 6 0 12 11
13 24 4 52 20 75 57 82 75 14 42 24 -79 24 -113 0 -126 -2 -127 -17z"/>
<path d="M549 491 c-98 -27 -123 -41 -126 -76 -3 -35 -14 -78 -24 -97 -6 -11
-8 -26 -5 -34 3 -8 2 -14 -3 -14 -4 0 -7 -11 -7 -25 2 -33 162 -189 185 -179
9 3 58 19 110 35 92 27 115 42 106 67 -2 6 1 12 7 12 6 0 9 2 6 5 -3 3 5 42
16 88 l22 82 -85 83 c-46 45 -89 81 -95 81 -6 -1 -54 -13 -107 -28z"/>
</g>
</svg>
